<?xml version="1.0" standalone="no"?><!DOCTYPE svg PUBLIC "-//W3C//DTD SVG 1.1//EN" "http://www.w3.org/Graphics/SVG/1.1/DTD/svg11.dtd"><svg class="icon" height="512" viewBox="0 0 1024 1024" version="1.1" xmlns="http://www.w3.org/2000/svg"><path d="M108.312311 557.727529c-24.776812 24.812812-64.950508 24.812812-89.728321 0-24.778812-24.810812-24.777812-65.040508 0-89.85132l448.644605-449.2666c24.777812-24.812812 64.950508-24.812812 89.72932 0 24.778812 24.812812 24.778812 65.040508 0 89.85332L108.312311 557.727529zM1005.60352 467.876209c24.776812 24.810812 24.776812 65.040508 0 89.85232-24.776812 24.812812-64.950508 24.812812-89.728321 0L467.227595 108.463929c-24.777812-24.812812-24.776812-65.040508 0-89.85332 24.778812-24.812812 64.951508-24.812812 89.73032 0l448.645605 449.2656zM108.312311 1005.385141c-24.776812 24.812812-64.950508 24.812812-89.728321 0-24.778812-24.810812-24.777812-65.040508 0-89.85132l448.644605-449.2666c24.777812-24.812812 64.950508-24.812812 89.72932 0 24.778812 24.812812 24.778812 65.040508 0 89.85332l-448.645604 449.2646zM1005.60352 915.532821c24.776812 24.810812 24.776812 65.040508 0 89.85232-24.776812 24.812812-64.950508 24.812812-89.728321 0L467.227595 556.120541c-24.777812-24.812812-24.776812-65.040508 0-89.85332 24.778812-24.812812 64.951508-24.812812 89.73032 0l448.645605 449.2656z" /></svg>